<?xml version="1.0" encoding="UTF-8"?> <svg xmlns="http://www.w3.org/2000/svg" xmlns:xlink="http://www.w3.org/1999/xlink" viewBox="0 0 459.97 514.97"><defs><linearGradient id="linear-gradient" x1="39.68" y1="245.03" x2="420.85" y2="245.03" gradientUnits="userSpaceOnUse"><stop offset="0" stop-color="#fff"></stop><stop offset="0.02" stop-color="#fef5f6"></stop><stop offset="0.12" stop-color="#fac2cb"></stop><stop offset="0.23" stop-color="#f795a4"></stop><stop offset="0.34" stop-color="#f46f84"></stop><stop offset="0.45" stop-color="#f15069"></stop><stop offset="0.57" stop-color="#ef3855"></stop><stop offset="0.69" stop-color="#ee2746"></stop><stop offset="0.83" stop-color="#ed1d3e"></stop><stop offset="1" stop-color="#ed1a3b"></stop></linearGradient><clipPath id="clip-path"><circle cx="230.27" cy="245.84" r="190.59" style="fill:none"></circle></clipPath></defs><title>logo-wp</title><g id="Layer_2" data-name="Layer 2"><g id="Layer_6" data-name="Layer 6"><circle cx="230.27" cy="245.03" r="190.59" style="stroke:#231f20;stroke-miterlimit:10;stroke-width:10px;fill:url(#linear-gradient)"></circle></g><g id="Layer_4" data-name="Layer 4"><g style="clip-path:url(#clip-path)"><path d="M62.3,276.78c-12.94,0-21.06-.42-22.2-.48l.67-12c1,.05,102.36,5.24,186.46-23.69,12.84-4.41,23.92-8.36,33.69-11.85,55.92-19.94,72.8-25.95,155.27-24.8L416,216c-80.32-1.12-95.3,4.23-151.07,24.12-9.8,3.49-20.91,7.45-33.82,11.89C168,273.69,97.4,276.78,62.3,276.78Z" style="fill:#231f20"></path><path d="M69,326.69c-12.94,0-21-.42-22.19-.49l.66-12c1,.06,102.37,5.24,186.47-23.68,12.84-4.42,23.92-8.37,33.69-11.85,55.92-19.94,72.79-26,155.26-24.81l-.16,12c-80.31-1.12-95.3,4.22-151.07,24.11-9.8,3.5-20.92,7.46-33.82,11.9C174.69,323.59,104.07,326.69,69,326.69Z" style="fill:#231f20"></path><path d="M77,374c-12.94,0-21.05-.42-22.19-.49l.66-12c1,.06,102.36,5.24,186.46-23.68,12.84-4.42,23.92-8.37,33.69-11.85,55.92-19.94,72.78-26,155.27-24.81l-.17,12c-80.31-1.12-95.3,4.22-151.07,24.11-9.8,3.49-20.91,7.46-33.81,11.9C182.73,370.93,112.12,374,77,374Z" style="fill:#231f20"></path><path d="M88.23,421.19c-12.94,0-21-.42-22.19-.48l.66-12c1,.06,102.37,5.24,186.47-23.68,12.84-4.42,23.92-8.37,33.69-11.86,55.92-19.94,72.79-25.95,155.26-24.8l-.16,12c-80.31-1.11-95.3,4.23-151.07,24.12C281.09,388,270,392,257.07,396.39,194,418.1,123.34,421.19,88.23,421.19Z" style="fill:#231f20"></path><path d="M54.8,229.25c-12.94,0-21.06-.42-22.2-.48l.67-12c1,.05,102.36,5.24,186.46-23.69,12.84-4.41,23.92-8.36,33.69-11.85,55.92-19.94,72.8-25.95,155.27-24.81l-.17,12c-80.31-1.11-95.3,4.23-151.07,24.11-9.8,3.5-20.91,7.46-33.82,11.9C160.52,226.16,89.9,229.25,54.8,229.25Z" style="fill:#231f20"></path><path d="M43.41,183.85c-12.94,0-21-.42-22.19-.48l.66-12c1,.05,102.37,5.24,186.47-23.68,12.84-4.42,23.91-8.37,33.69-11.85,55.91-19.94,72.79-26,155.26-24.81l-.17,12c-80.32-1.12-95.3,4.22-151.06,24.11-9.8,3.49-20.92,7.46-33.82,11.89C149.14,180.76,78.52,183.85,43.41,183.85Z" style="fill:#231f20"></path><path d="M36,130.74c-12.94,0-21-.42-22.19-.48l.66-12c1,.06,102.37,5.25,186.46-23.68,12.84-4.41,23.92-8.37,33.69-11.85,55.92-19.94,72.8-25.95,155.27-24.81l-.17,12c-80.31-1.12-95.3,4.23-151.07,24.11-9.8,3.5-20.91,7.46-33.81,11.9C141.69,127.65,71.07,130.74,36,130.74Z" style="fill:#231f20"></path></g></g><g id="Layer_5" data-name="Layer 5"><path d="M453.13,129.56C409.2,62.72,326.29,17.66,231.24,17.66,134.1,17.66,49.63,64.73,6.51,134l67.91,37.61c38.61-47,94.09-76.47,155.74-76.47,60.43,0,114.94,28.31,153.43,73.7Z" style="fill:#fff;stroke:#231f20;stroke-miterlimit:10;stroke-width:4px"></path><path d="M453.05,113.86C409.12,47,321.27,2,226.22,2,129.08,2,49.55,49,6.42,118.31l67.92,37.61c38.6-47,94.08-76.47,155.73-76.47,60.44,0,114.94,28.31,153.43,73.7Z" style="fill:#0054a6;stroke:#231f20;stroke-miterlimit:10;stroke-width:4px"></path><path d="M2.87,368.38c44.68,66.84,129,111.91,225.68,111.91,98.81,0,184.72-47.08,228.58-116.35l-69.08-37.62c-39.26,47-95.69,76.48-158.4,76.48-61.46,0-116.9-28.32-156-73.71Z" style="fill:#fff;stroke:#231f20;stroke-miterlimit:10;stroke-width:4px"></path><path d="M25.4,368.62C65.7,427.39,146.29,467,233.49,467c89.12,0,162.08-41.36,201.65-102.27l-62.31-33.08C337.42,373,286.52,398.87,230,398.87c-55.44,0-105.45-24.89-140.76-64.8Z" style="fill:#0054a6;stroke:#231f20;stroke-miterlimit:10;stroke-width:4px"></path></g><g id="Layer_3" data-name="Layer 3"><path d="M78.21,67.75l.88,1a4.38,4.38,0,0,0-1.17,2.06A5.46,5.46,0,0,0,78,73.29q.13.45,2,5.53L95.37,118l-1,.92L65,104.08l11,31.51-1,.87L37.24,118.14a41.51,41.51,0,0,0-7.24-3,4.37,4.37,0,0,0-3.34,1.08l-.87-1,15.32-13.87.87,1A5.8,5.8,0,0,0,40,105.11a2.12,2.12,0,0,0,.53,1.82q.9,1,5.08,3L68.1,120.84l-6.58-18.42L56.66,100a37.22,37.22,0,0,0-5.57-2.43,5.42,5.42,0,0,0-2.83-.12,7.49,7.49,0,0,0-2.89,1.81l-.87-1L61.62,82.78l.87,1a12.54,12.54,0,0,0-2.32,2.62,2.26,2.26,0,0,0-.31,1.39A2.23,2.23,0,0,0,60.44,89a24,24,0,0,0,4.5,2.61l21.58,10.9-8-20.35A42.33,42.33,0,0,0,76.79,78a9.26,9.26,0,0,0-1.23-1.78,2.83,2.83,0,0,0-2.25-1Q72,75.21,69.92,77l-.88-1Z" style="fill:#fff"></path><path d="M109.44,52.83l9.38,17,.83-.46q4-2.19,4.38-5.67t-1.79-8.61l1.17-.65,12.07,21.85-1.17.65a18.55,18.55,0,0,0-4.79-5,7.6,7.6,0,0,0-4.44-1.54,11.86,11.86,0,0,0-5,1.73l6.49,11.75a19.53,19.53,0,0,0,2.62,4.06,3,3,0,0,0,1.79.66,5.88,5.88,0,0,0,2.86-.94l2.49-1.37c3.9-2.16,6.52-4.78,7.88-7.89s1.52-6.78.51-11l1.14-.63L151.31,81,115.24,101l-.63-1.14L116,99a6.49,6.49,0,0,0,2.56-2.26,3.15,3.15,0,0,0,.42-2.15,14.68,14.68,0,0,0-1.8-4.07L102,63.11a25.5,25.5,0,0,0-2.07-3.4,3.45,3.45,0,0,0-2.06-1,6.08,6.08,0,0,0-3.68.91l-1.38.76-.63-1.14,34.93-19.28L134,52.27l-1.17.64c-2.26-2.68-4.3-4.39-6.1-5.1a10.54,10.54,0,0,0-6.16-.37,28.07,28.07,0,0,0-6.77,3Z" style="fill:#fff"></path><path d="M198.38,49.19,201,65.82l-40.9,10.89-.34-1.26,1.53-.4a6.57,6.57,0,0,0,3-1.58,3.18,3.18,0,0,0,.92-2,14.38,14.38,0,0,0-.76-4.38l-8.07-30.3a15.56,15.56,0,0,0-1.55-4.32,3.49,3.49,0,0,0-1.92-1.14,6.34,6.34,0,0,0-3.25.15l-1.53.41-.33-1.26,24.56-6.54.33,1.26-2,.54a6.47,6.47,0,0,0-3,1.57,3.4,3.4,0,0,0-1,2,14.52,14.52,0,0,0,.77,4.38l7.81,29.35a15.78,15.78,0,0,0,1.6,4.4,2.81,2.81,0,0,0,2,1,16.21,16.21,0,0,0,4.19-.78l3.84-1a13.51,13.51,0,0,0,5.77-2.91,11.78,11.78,0,0,0,3.14-5.21,33.86,33.86,0,0,0,1.2-9.12Z" style="fill:#fff"></path><path d="M253.64,48.92,251.38,65.6l-42.31-1.18,0-1.3,1.58.05a6.68,6.68,0,0,0,3.36-.65,3.22,3.22,0,0,0,1.45-1.65,14.62,14.62,0,0,0,.51-4.41l.87-31.35a16,16,0,0,0-.26-4.58,3.51,3.51,0,0,0-1.52-1.64,6.33,6.33,0,0,0-3.16-.78l-1.58,0,0-1.3,25.41.7,0,1.3-2.07-.05a6.58,6.58,0,0,0-3.36.64A3.38,3.38,0,0,0,228.84,21a14.71,14.71,0,0,0-.51,4.42l-.84,30.36a15.45,15.45,0,0,0,.29,4.67A2.84,2.84,0,0,0,229.39,62a17.11,17.11,0,0,0,4.25.43l4,.11A13.37,13.37,0,0,0,244,61.38a11.79,11.79,0,0,0,4.49-4.09,34.12,34.12,0,0,0,3.74-8.41Z" style="fill:#fff"></path><path d="M291.24,61.6l-16.13-4.85-3.25,3.86A10.28,10.28,0,0,0,269.81,64a3.16,3.16,0,0,0,.7,3.29,13.63,13.63,0,0,0,4.23,2.16l-.37,1.24-15.19-4.57.38-1.24a7.08,7.08,0,0,0,4.65-.82q2.09-1.2,6-5.71l27.29-31.51.64.19,5.19,42.39q.76,6,1.86,7.86A5.48,5.48,0,0,0,308,79.47l-.38,1.24-22.08-6.64.37-1.25.91.28a7.22,7.22,0,0,0,4,.38A1.87,1.87,0,0,0,292,72.15a4.17,4.17,0,0,0,.17-1.3c0-.22-.07-1.16-.25-2.83Zm-.4-2.84L288.78,41,277,54.61Z" style="fill:#fff"></path><path d="M351,50.7,356,88.16l10.55-17.58c1.48-2.45,2.12-4.32,1.94-5.6q-.41-2.63-3.84-4.6l.67-1.12,13.5,8.11-.67,1.12a12.1,12.1,0,0,0-4-1.24,4,4,0,0,0-2.42.89,13.88,13.88,0,0,0-2.95,3.78l-20.43,34-1-.62-7.2-50.62-15.6,26q-2.12,3.53-1.25,5.73a6.85,6.85,0,0,0,2.95,3.45l1,.58-.67,1.12L312,82.86l.67-1.12c2.26,1.34,4.11,1.81,5.53,1.44s2.8-1.64,4.1-3.81l17.32-28.85-.22-1.61a9.17,9.17,0,0,0-1-3.51,7.94,7.94,0,0,0-2.51-2.29l.67-1.12Z" style="fill:#fff"></path><path d="M359,111.86l.89-.94,1.15,1.08a6.36,6.36,0,0,0,2.76,1.72,4,4,0,0,0,2.41-.17,16.65,16.65,0,0,0,3.27-3L391,87.76a15.45,15.45,0,0,0,2.86-3.59,3.51,3.51,0,0,0,0-2.24A6.36,6.36,0,0,0,392,79.25l-1.15-1.09.89-.94,15.51,14.66q6.21,5.87,8.4,11.13a20.28,20.28,0,0,1,1.09,12.88,27.46,27.46,0,0,1-14.1,17.36,21.31,21.31,0,0,1-7.85,2.21,20.49,20.49,0,0,1-7.35-.85,31.7,31.7,0,0,1-7.74-3.76,38.79,38.79,0,0,1-5.19-4.33ZM403.1,91.67l-25.55,27a12.91,12.91,0,0,0-2.28,2.83,2,2,0,0,0,0,1.39,5.75,5.75,0,0,0,1.63,2.27q4.26,4,9.27,3.24,6.78-1,14.61-9.31,6.3-6.68,8-12.64a12.32,12.32,0,0,0-.25-8.27Q407.4,95.68,403.1,91.67Z" style="fill:#fff"></path><path d="M86.53,388.63l-8.48,10.14a15.08,15.08,0,0,0-2.76,4,3.53,3.53,0,0,0,.27,2.31,11.31,11.31,0,0,0,3,3.31l-.83,1L59.17,393.89l.84-1a10.94,10.94,0,0,0,3.83,2.41,3.61,3.61,0,0,0,2.3-.17,14.56,14.56,0,0,0,3.47-3.42L89.46,368a14.92,14.92,0,0,0,2.76-4,3.49,3.49,0,0,0-.26-2.3,11.29,11.29,0,0,0-3-3.32l.84-1,15.93,13.33q7.88,6.59,9,12.25a11.34,11.34,0,0,1-2.44,9.88A11.7,11.7,0,0,1,104.9,397a14.66,14.66,0,0,1-9-1.65A55.09,55.09,0,0,1,86.53,388.63Zm15-17.91L88.29,386.53c.57.53,1,.92,1.31,1.18A8.44,8.44,0,0,0,96.3,390q3.42-.47,6.84-4.56t3.21-7.45c-.14-2.25-1.38-4.36-3.74-6.33Z" style="fill:#fff"></path><path d="M139.94,395l-7.42,17.93.87.37q4.2,1.72,7.17-.12t5.61-6.77l1.24.51L137.87,430l-1.24-.51a18.67,18.67,0,0,0,.91-6.85,7.62,7.62,0,0,0-1.57-4.43,11.89,11.89,0,0,0-4.46-2.82l-5.14,12.41a19.6,19.6,0,0,0-1.53,4.58,2.89,2.89,0,0,0,.6,1.81,5.86,5.86,0,0,0,2.52,1.65l2.63,1.08c4.11,1.71,7.81,2.12,11.07,1.24s6.25-3.05,9-6.5l1.2.5L144,445.31,106,429.56l.5-1.2,1.46.6a6.62,6.62,0,0,0,3.37.6,3.22,3.22,0,0,0,1.95-1,15,15,0,0,0,2.05-4l12-29a25.06,25.06,0,0,0,1.35-3.74,3.33,3.33,0,0,0-.48-2.25,6,6,0,0,0-3-2.3l-1.46-.61.5-1.2,36.87,15.25-5.39,13-1.23-.51q1-5.16.18-7.95a10.6,10.6,0,0,0-3.56-5.05,28.18,28.18,0,0,0-6.58-3.41Z" style="fill:#fff"></path><path d="M209.68,440.4l-4.11,16.32-41.91-5.88.18-1.29,1.56.22a6.66,6.66,0,0,0,3.42-.27,3.2,3.2,0,0,0,1.62-1.47,14.22,14.22,0,0,0,1-4.34l4.36-31.05a15.62,15.62,0,0,0,.25-4.58,3.51,3.51,0,0,0-1.32-1.8,6.33,6.33,0,0,0-3.06-1.12l-1.57-.22.19-1.29,25.17,3.53-.18,1.29-2.06-.29a6.62,6.62,0,0,0-3.41.27,3.36,3.36,0,0,0-1.66,1.47,14.54,14.54,0,0,0-1,4.33l-4.22,30.08a15.26,15.26,0,0,0-.23,4.68,2.74,2.74,0,0,0,1.43,1.7,16.51,16.51,0,0,0,4.17.91l3.93.55a13.43,13.43,0,0,0,6.45-.44,11.77,11.77,0,0,0,4.92-3.57,33.91,33.91,0,0,0,4.65-7.94Z" style="fill:#fff"></path><path d="M240.19,433.91l.92,14.74a14.79,14.79,0,0,0,.69,4.53,3.48,3.48,0,0,0,1.68,1.5,6.29,6.29,0,0,0,3.21.49l1.58-.1.08,1.3-24.87,1.55-.08-1.29,1.58-.1a6.53,6.53,0,0,0,3.28-.95,3.16,3.16,0,0,0,1.3-1.77,14.56,14.56,0,0,0,.11-4.45l-2-31.29a15.4,15.4,0,0,0-.67-4.54,3.52,3.52,0,0,0-1.66-1.5,6.31,6.31,0,0,0-3.22-.49l-1.58.1-.08-1.29,24.88-1.56.08,1.3-1.58.1a6.61,6.61,0,0,0-3.29.94,3.41,3.41,0,0,0-1.33,1.78,14.48,14.48,0,0,0-.11,4.44l.84,13.47,16.81-1.05L256,416.3a15.84,15.84,0,0,0-.67-4.54,3.58,3.58,0,0,0-1.68-1.5,6.53,6.53,0,0,0-3.24-.48l-1.54.1-.08-1.3L273.59,407l.08,1.29-1.54.1a6.42,6.42,0,0,0-3.29.95,3.3,3.3,0,0,0-1.33,1.77,14.56,14.56,0,0,0-.11,4.45l2,31.29a15.63,15.63,0,0,0,.68,4.54,3.51,3.51,0,0,0,1.67,1.5,6.46,6.46,0,0,0,3.24.48l1.54-.09.09,1.29-24.85,1.56-.08-1.3,1.55-.1a6.41,6.41,0,0,0,3.28-.94,3.43,3.43,0,0,0,1.34-1.78,14.48,14.48,0,0,0,.11-4.44L257,432.86Z" style="fill:#fff"></path><path d="M315.71,429.85l-16,5.26-.46,5a10.19,10.19,0,0,0,.27,3.95,3.16,3.16,0,0,0,2.46,2.3,13.52,13.52,0,0,0,4.7-.66l.41,1.24L292,451.92l-.4-1.23a7.12,7.12,0,0,0,3.34-3.34q1-2.18,1.63-8.11l4.32-41.46.63-.21,28.54,31.77c2.72,3,4.73,4.8,6,5.39a5.48,5.48,0,0,0,3.6.14l.41,1.24-21.91,7.2-.41-1.23.9-.3a7.28,7.28,0,0,0,3.47-1.95,1.89,1.89,0,0,0,.23-1.78,4.1,4.1,0,0,0-.61-1.17c-.11-.19-.72-.91-1.82-2.18Zm-1.95-2.1-11.88-13.38-1.81,17.88Z" style="fill:#fff"></path><path d="M373.48,394.38,363.27,362l14.89-12.44.84,1-1.19,1a6.64,6.64,0,0,0-2.12,2.73,3.47,3.47,0,0,0,0,2.17,14,14,0,0,0,2.52,3.62l20.14,24.13a15.77,15.77,0,0,0,3.23,3.26,3.52,3.52,0,0,0,2.24.21,6.35,6.35,0,0,0,2.89-1.52l1.19-1,.83,1-19.1,15.95-.84-1,1.19-1a6.64,6.64,0,0,0,2.12-2.73,3.43,3.43,0,0,0,0-2.2,14.65,14.65,0,0,0-2.54-3.65l-22.65-27.12,13.84,45.1-.65.54-41.92-21.24,21.52,25.77a29,29,0,0,0,2.91,3.21,5,5,0,0,0,3.36.92,8.14,8.14,0,0,0,4.39-2.22l.84,1-12.53,10.45-.83-1,.38-.31a7.53,7.53,0,0,0,1.94-2.29,4.74,4.74,0,0,0,.66-2.45,6.84,6.84,0,0,0-.81-2.66c-.13-.23-.88-1.16-2.25-2.8l-19.33-23.16a15.65,15.65,0,0,0-3.19-3.22,3.56,3.56,0,0,0-2.23-.2,6.38,6.38,0,0,0-2.89,1.53l-1.16,1-.84-1,14.95-12.49Z" style="fill:#fff"></path><path d="M26.79,438.92,29,443.73a11.32,11.32,0,0,1-7.23,1.36,11,11,0,0,1-6.12-3.7,11.08,11.08,0,0,1-3.08-8.6q.38-4.8,4.88-8.89c3.18-2.89,6.39-4.3,9.63-4.26a11.36,11.36,0,0,1,8.51,4.08,10.67,10.67,0,0,1,3.09,7.56,10,10,0,0,1-1.74,5.14l-4.37-3a5.33,5.33,0,0,0-.45-6.93,5.87,5.87,0,0,0-4.65-2.06c-1.81,0-3.86,1.09-6.13,3.16s-3.74,4.18-4,6a5.67,5.67,0,0,0,1.54,4.78,5.2,5.2,0,0,0,3.37,1.75A7.61,7.61,0,0,0,26.79,438.92Z" style="fill:#231f20"></path><path d="M28.81,453.91l15.57-20.54,4.14,3.14-6.12,8.08,8.13,6.16,6.12-8.08,4.15,3.14L45.24,466.35l-4.15-3.14,6.8-9-8.12-6.15-6.81,9Z" style="fill:#231f20"></path><path d="M71.88,481.81,66.94,479l.9-6.2-9-5-4.72,4.06-4.81-2.7L70.69,451.6l4.8,2.69Zm-3.37-13.58,1.58-10.08-7.71,6.64Z" style="fill:#231f20"></path><path d="M76,483.72l9.92-23.79,7.19,3-2.46,18,11-14.44,7.2,3L99,493.3l-4.46-1.86,7.81-18.72L89.77,489.47l-4.63-1.93,3.11-20.68-7.81,18.72Z" style="fill:#231f20"></path><path d="M112.91,470.83l9.84,3a29.51,29.51,0,0,1,4.29,1.59,6.43,6.43,0,0,1,3.51,4.44,5.83,5.83,0,0,1-.13,3.12,6,6,0,0,1-1.91,2.89,6.11,6.11,0,0,1-3.19,1.39,6.72,6.72,0,0,1,2.77,3.3,6.26,6.26,0,0,1,.07,4.08,7.71,7.71,0,0,1-1.79,3,7,7,0,0,1-2.91,1.88,7.47,7.47,0,0,1-3.7.14q-1.28-.25-6.05-1.68l-8.38-2.58Zm.7,15.43-2,6.58,4.6,1.42a24.23,24.23,0,0,0,3.46.9,3.24,3.24,0,0,0,2.11-.43,3.18,3.18,0,0,0,1.34-1.88,3.32,3.32,0,0,0,0-2,3.14,3.14,0,0,0-1.21-1.61,17.92,17.92,0,0,0-4.3-1.71Zm3-9.8-1.75,5.7,3.26,1c1.93.6,3.15.94,3.63,1a3.42,3.42,0,0,0,2.28-.27,2.71,2.71,0,0,0,1.33-1.7,2.87,2.87,0,0,0-.06-2.05,3,3,0,0,0-1.61-1.44c-.47-.21-1.88-.67-4.22-1.39Z" style="fill:#231f20"></path><path d="M131.36,503.16,137.05,478l18.64,4.22-1,4.26-13.56-3.08L139.9,489l12.62,2.86-1,4.24-12.62-2.86-1.55,6.84,14,3.18-1,4.23Z" style="fill:#231f20"></path><path d="M155.91,508.52l3.94-25.46,10.82,1.67a18.66,18.66,0,0,1,5.83,1.61,5.87,5.87,0,0,1,2.58,2.9,7.44,7.44,0,0,1,.49,4.18,6.83,6.83,0,0,1-2.42,4.47,8.18,8.18,0,0,1-5.4,1.58,12,12,0,0,1,2.42,2.56,28.84,28.84,0,0,1,2.29,4.59l2.34,5.45-6.15-1L169.79,505a34.58,34.58,0,0,0-2.13-4.16,3.76,3.76,0,0,0-1.38-1.3,8.27,8.27,0,0,0-2.54-.69l-1.05-.16-1.64,10.63Zm7.41-13.9,3.81.59a19.52,19.52,0,0,0,4.67.4,2.79,2.79,0,0,0,1.61-.85,3.4,3.4,0,0,0,.81-1.83,3.13,3.13,0,0,0-.36-2.18,3.2,3.2,0,0,0-1.78-1.3c-.41-.12-1.66-.35-3.74-.67l-4-.62Z" style="fill:#231f20"></path><path d="M192.72,500.72a16.41,16.41,0,0,1,1.57-6.52,11.89,11.89,0,0,1,2.6-3.39,9.94,9.94,0,0,1,3.46-2.12A13.9,13.9,0,0,1,206,488a12.06,12.06,0,0,1,8.89,4.06q3.21,3.72,2.84,10t-4,9.55a12,12,0,0,1-9.26,3,12.12,12.12,0,0,1-8.92-4Q192.36,506.87,192.72,500.72Zm5.36.14c-.17,2.92.38,5.16,1.63,6.75a7,7,0,0,0,10.22.62c1.42-1.42,2.21-3.62,2.39-6.6s-.34-5.18-1.55-6.71a7.19,7.19,0,0,0-10.33-.58C199,495.73,198.26,497.9,198.08,500.86Z" style="fill:#231f20"></path><path d="M222,515l-.24-25.77,17.67-.17,0,4.36-12.46.12,0,6.1,10.76-.1,0,4.36-10.76.1.11,10.95Z" style="fill:#231f20"></path><path d="M270.8,503.39l5.16,1.16a11.26,11.26,0,0,1-3.31,6.57A12.13,12.13,0,0,1,257.3,511q-3.6-3.21-4.12-9.27-.54-6.42,2.46-10.24a11.37,11.37,0,0,1,8.4-4.3,10.7,10.7,0,0,1,7.89,2.13,10.21,10.21,0,0,1,3,4.5l-5,1.67a5.31,5.31,0,0,0-5.78-3.84,5.87,5.87,0,0,0-4.46,2.44c-1.07,1.47-1.47,3.74-1.21,6.79q.42,4.88,2.35,6.79a5.7,5.7,0,0,0,4.73,1.67A5.11,5.11,0,0,0,269,507.7,7.67,7.67,0,0,0,270.8,503.39Z" style="fill:#231f20"></path><path d="M279.14,499.33a16.49,16.49,0,0,1,.14-6.71,12.2,12.2,0,0,1,1.82-3.86A10.12,10.12,0,0,1,284,486a14.25,14.25,0,0,1,5.33-1.87,12.09,12.09,0,0,1,9.56,2.08q3.91,3,4.9,9.17T302,505.51a12,12,0,0,1-8.41,4.89,12.15,12.15,0,0,1-9.58-2Q280.1,505.41,279.14,499.33Zm5.27-1c.46,2.88,1.46,5,3,6.24A7,7,0,0,0,297.56,503q1.62-2.52.93-6.95t-2.95-6.23a7.2,7.2,0,0,0-10.21,1.63Q283.73,493.94,284.41,498.33Z" style="fill:#231f20"></path><path d="M311,507,304.93,482l7.57-1.83,8.67,16,.37-18.17,7.59-1.83,6.05,25.05-4.7,1.14-4.76-19.72-.21,20.92-4.87,1.17-9.72-18.52,4.76,19.72Z" style="fill:#231f20"></path><path d="M341.51,499.36,333.14,475l7.36-2.53,10.14,15.1-1.34-18.12,7.38-2.54,8.37,24.38-4.57,1.57-6.59-19.19,1.75,20.85-4.74,1.62L339.49,478.6l6.59,19.19Z" style="fill:#231f20"></path><path d="M371.24,488.68l-10.72-23.43,17.38-7.95,1.81,4-12.64,5.79,2.37,5.19,11.77-5.38,1.8,3.95-11.76,5.38,2.92,6.38,13.09-6,1.81,3.95Z" style="fill:#231f20"></path><path d="M394.55,477.71l-13.22-22.12,9.39-5.62a19.13,19.13,0,0,1,5.51-2.49,6,6,0,0,1,3.84.59,7.44,7.44,0,0,1,3.05,2.9,6.9,6.9,0,0,1,1,5,8.15,8.15,0,0,1-3.16,4.66,12.16,12.16,0,0,1,3.5.43,28.35,28.35,0,0,1,4.69,2.07l5.28,2.7L409.09,469l-6.1-2.88a37,37,0,0,0-4.3-1.85,4,4,0,0,0-1.89-.11,8.51,8.51,0,0,0-2.4,1.09l-.9.54L399,475Zm-3.17-15.44,3.31-2a20.09,20.09,0,0,0,3.85-2.67,2.85,2.85,0,0,0,.69-1.69,3.33,3.33,0,0,0-.54-1.93,3.07,3.07,0,0,0-1.67-1.44,3.19,3.19,0,0,0-2.2.13c-.4.17-1.5.79-3.31,1.88L388,456.66Z" style="fill:#231f20"></path><path d="M425.38,445l4.92-1.95a11.32,11.32,0,0,1,1,7.3,12.15,12.15,0,0,1-12.76,8.53q-4.78-.63-8.63-5.34-4.06-5-3.74-9.84a11.35,11.35,0,0,1,4.52-8.28,10.72,10.72,0,0,1,7.72-2.69,10.13,10.13,0,0,1,5,2L420.21,439a5.44,5.44,0,0,0-3.48-1.25,5.51,5.51,0,0,0-3.47,1.33,5.88,5.88,0,0,0-2.3,4.53q-.07,2.73,2.83,6.29,3.09,3.79,5.77,4.29a5.69,5.69,0,0,0,4.85-1.29,5.2,5.2,0,0,0,1.93-3.28A7.61,7.61,0,0,0,425.38,445Z" style="fill:#231f20"></path><path d="M440.62,443.84l-19.79-16.5,12.24-14.68,3.35,2.79-8.91,10.68,4.39,3.66,8.28-9.94,3.34,2.79-8.29,9.93,5.39,4.49L449.84,426l3.33,2.78Z" style="fill:#231f20"></path></g></g></svg> 