<?xml version="1.0" encoding="UTF-8"?> <svg xmlns="http://www.w3.org/2000/svg" viewBox="0 0 265.18 177.34"><title>logo-fe</title><g id="Layer_2" data-name="Layer 2"><g id="Layer_1-2" data-name="Layer 1"><rect y="35.99" width="265.18" height="103.42" style="fill:#d6995f"></rect><path d="M29,22.51H26.54c-.74,0-1,.08-1.1.73H25V19.6l.45,0c.13.57.68.89,2.27.89h5.36v.38c-.68,0-.84.11-.84.7v3.1c0,.59.1.62.42.67v.22a10.07,10.07,0,0,1-6.79,2.37c-4.88,0-8.37-3-8.37-7.06s3.36-7.44,8.44-7.44a10.42,10.42,0,0,1,3.91.7,10.06,10.06,0,0,0,1.78.71,3.07,3.07,0,0,0,.74-.27l.26.16L29.84,18l-.32-.1a1,1,0,0,0,.13-.62c0-.68-1.23-1.59-3.75-1.59-3.3,0-5.18,2-5.18,5,0,3.88,3,4.95,5.47,4.95A4.32,4.32,0,0,0,29,24.8Z" style="fill:#d6995f"></path><path d="M55.34,27.73v-.37c.55-.08.72-.24.72-.7v-12c0-.46-.17-.62-.78-.7v-.37h8.08c3.56,0,5.69,1.5,5.69,3.93,0,2.05-1.2,3.55-3.65,4l2.52,4.1c.71,1.21.87,1.67,1.52,1.75v.37H64.65v-.37c.36,0,.65-.11.65-.35s0-.27-.39-.84l-2.68-4.31H59.29v4.8c0,.46.16.62.78.7v.37Zm3.95-8.13H63c2,0,2.81-.7,2.81-1.89S65,15.83,63,15.83H59.29Z" style="fill:#d6995f"></path><path d="M96.46,25.47h7.44c.74,0,1-.08,1.1-.48h.45v3.23H105c-.1-.4-.36-.48-1.1-.48H92.2v-.38c.87-.08,1-.24,1-.7v-12c0-.45-.16-.62-1.1-.7v-.38h11.32c.74,0,1-.08,1.09-.48H105v3.18h-.46c-.09-.35-.35-.43-1.09-.43h-7v3.5h4.14c.74,0,1-.08,1.1-.48h.45V22h-.45a.41.41,0,0,0-.29-.35,3.15,3.15,0,0,0-.81-.08H96.46Z" style="fill:#d6995f"></path><path d="M126.66,27.74v-.38c.41,0,.58-.43.67-.65l4.73-11.53a2.8,2.8,0,0,0,.28-.91c0-.17-.13-.27-.71-.33v-.38H137v.38c-.48,0-.68.19-.68.46a4.44,4.44,0,0,0,.39,1.1l4.62,11.21c.2.49.33.59.68.65v.38h-4.39v-.38c.42-.06.58-.11.58-.3a1,1,0,0,0-.13-.46l-1-2.47h-5.82l-.91,2.23a1.27,1.27,0,0,0-.13.49c0,.24.16.48.71.51v.38Zm9.66-5.5-2.13-5.66h-.07L132,22.24Z" style="fill:#d6995f"></path><path d="M165.87,27.73v-.37c.48-.08.64-.25.64-.7V15.83h-3.88c-.74,0-1,.08-1.09.62h-.46V13.08h.46c.09.41.35.49,1.09.49h11c.75,0,1-.08,1.11-.49h.45v3.37h-.45c-.1-.54-.36-.62-1.11-.62h-3.87V26.66c0,.45.16.62.77.7v.37Z" style="fill:#d6995f"></path><path d="M201.33,25.47h7.44c.74,0,1-.08,1.09-.48h.46v3.23h-.46c-.09-.4-.35-.48-1.09-.48H197.06v-.38c.87-.08,1-.24,1-.7v-12c0-.45-.17-.62-1.1-.7v-.38h11.31c.74,0,1-.08,1.1-.48h.45v3.18h-.45c-.1-.35-.36-.43-1.1-.43h-7v3.5h4.14c.74,0,1-.08,1.1-.48H207V22h-.45a.42.42,0,0,0-.3-.35,3.06,3.06,0,0,0-.8-.08h-4.14Z" style="fill:#d6995f"></path><path d="M233.1,27.73v-.37c.56-.08.72-.24.72-.7v-12c0-.46-.16-.62-.78-.7v-.37h8.08c3.56,0,5.69,1.5,5.69,3.93,0,2.05-1.19,3.55-3.65,4l2.52,4.1c.71,1.21.87,1.67,1.52,1.75v.37h-4.78v-.37c.35,0,.64-.11.64-.35s0-.27-.38-.84L240,21.86h-2.94v4.8c0,.46.16.62.78.7v.37Zm4-8.13h3.72c2,0,2.81-.7,2.81-1.89s-.84-1.88-2.81-1.88h-3.72Z" style="fill:#d6995f"></path><path d="M36.27,56.6a10.27,10.27,0,0,0-1.22-3.87c-.7-1.36-1.66-1.75-5-1.75H26.77c-1.26,0-1.39.1-1.39,1.5V64h4.49c4,0,4.13-.44,4.7-3.54h1.22v9.3H34.57c-.57-3.3-.74-3.88-4.7-3.88H25.38v8.77c0,4.16.35,4.45,4.31,4.74v1.35H17.84V79.4c3.49-.29,3.83-.58,3.83-4.74V55.39c0-4.21-.34-4.45-3.7-4.75V49.29H37.14c0,1.74.22,4.84.43,7.12Z" style="fill:#182958"></path><path d="M72.82,64.63c0,10.46-6.58,16.85-14.55,16.85S44.11,74.66,44.11,65.36c0-8.71,5.49-16.8,14.64-16.8,7.4,0,14.07,6.39,14.07,16.07M48.55,64c0,9.1,4.49,15.73,10.63,15.73,4.84,0,9.19-4.5,9.19-13.8,0-10.21-4.79-15.63-10.49-15.63C53,50.31,48.55,55,48.55,64" style="fill:#182958"></path><path d="M104.67,81.14c-.53,0-1,0-1.53,0-3.27-.19-5.1-1.26-7.06-4.4-1.52-2.37-3.09-5.37-4.4-7.75C90.94,67.59,90.2,67,87.94,67h-1.4V74.7c0,4.12.39,4.41,3.88,4.7v1.35H79V79.4c3.57-.29,4-.58,4-4.7V55.25c0-4.12-.35-4.27-3.75-4.61V49.29H90c3.18,0,5.32.43,7,1.65a7.47,7.47,0,0,1,2.88,6.34c0,4.16-2.31,6.73-5.53,8.27.74,1.6,2.57,4.85,3.87,7a42.61,42.61,0,0,0,3.53,5,6.16,6.16,0,0,0,3.14,2.27Zm-16-15.73c2.22,0,3.66-.39,4.75-1.36,1.7-1.45,2.4-3.38,2.4-6,0-5.23-3.09-7.16-6.41-7.16a3.93,3.93,0,0,0-2.35.48c-.3.24-.48.82-.48,2.13V65.41Z" style="fill:#182958"></path><path d="M130.58,56.79a12.72,12.72,0,0,0-1.39-4.31c-.7-1.16-1.44-1.5-4.7-1.5h-3.1V74.8c0,3.82.35,4.31,4.49,4.6v1.35h-12.5V79.4c4-.29,4.31-.78,4.31-4.6V51H115c-3.62,0-4.49.39-5,1.5a16,16,0,0,0-1.4,4.31h-1.26c.22-2.9.43-6,.52-8.71h.87c.61,1.11,1.18,1.21,2.4,1.21h17.21a2.26,2.26,0,0,0,2.22-1.21h.91c0,2.23.22,5.76.44,8.57Z" style="fill:#182958"></path><path d="M172.23,73.11c-.26,1.59-1.13,6.14-1.52,7.64h-21V79.4c4-.34,4.31-.73,4.31-4.65V55.49c0-4.36-.35-4.51-3.75-4.84V49.29h19.44c0,1.21.21,4.5.34,7l-1.26.24a13.47,13.47,0,0,0-1.39-4.16c-.61-1-1.79-1.36-4.93-1.36h-3.31c-1.35,0-1.44.1-1.44,1.55v11h4.1c3.92,0,4.14-.39,4.7-3.63h1.27v9.3h-1.27c-.56-3.49-.87-3.78-4.66-3.78h-4.14v9.15c0,2.27.27,3.29,1.05,3.92s2.35.63,4.53.63c3.31,0,4.53-.39,5.49-1.65a14.77,14.77,0,0,0,2.14-4.55Z" style="fill:#182958"></path><path d="M203.51,81.14c-.52,0-1,0-1.52,0-3.27-.19-5.1-1.26-7.06-4.4-1.53-2.37-3.09-5.37-4.4-7.75-.74-1.35-1.48-1.93-3.75-1.93h-1.39V74.7c0,4.12.39,4.41,3.87,4.7v1.35H177.81V79.4c3.57-.29,4-.58,4-4.7V55.25c0-4.12-.35-4.27-3.75-4.61V49.29h10.81c3.18,0,5.31.43,7,1.65a7.5,7.5,0,0,1,2.88,6.34c0,4.16-2.31,6.73-5.54,8.27.74,1.6,2.57,4.85,3.88,7a41.45,41.45,0,0,0,3.53,5,6.14,6.14,0,0,0,3.13,2.27Zm-16-15.73c2.22,0,3.66-.39,4.75-1.36,1.7-1.45,2.39-3.38,2.39-6,0-5.23-3.09-7.16-6.4-7.16a3.93,3.93,0,0,0-2.35.48c-.31.24-.48.82-.48,2.13V65.41Z" style="fill:#182958"></path><path d="M208,80.75V79.4c3.58-.29,3.92-.58,3.92-4.7V55.34c0-4.11-.34-4.4-3.92-4.69V49.29H219.5v1.36c-3.57.29-3.92.58-3.92,4.69V74.7c0,4.17.35,4.41,3.92,4.7v1.35Z" style="fill:#182958"></path><path d="M248,73.11c-.26,1.59-1.13,6.14-1.53,7.64h-21V79.4c4-.34,4.32-.73,4.32-4.65V55.49c0-4.36-.35-4.51-3.75-4.84V49.29h19.43c0,1.21.22,4.5.35,7l-1.26.24a13.44,13.44,0,0,0-1.4-4.16c-.61-1-1.78-1.36-4.92-1.36h-3.31c-1.35,0-1.44.1-1.44,1.55v11h4.1c3.92,0,4.14-.39,4.7-3.63h1.26v9.3h-1.26c-.56-3.49-.87-3.78-4.66-3.78h-4.14v9.15c0,2.27.26,3.29,1.05,3.92s2.35.63,4.53.63c3.31,0,4.53-.39,5.49-1.65a14.55,14.55,0,0,0,2.13-4.55Z" style="fill:#182958"></path><path d="M44.09,118.65a56.1,56.1,0,0,1-2.48,7.4,33.36,33.36,0,0,1-8,1.31c-10.85,0-15.6-8.33-15.6-16,0-10.17,7.06-16.9,16.78-16.9a31.41,31.41,0,0,1,7.71,1.31c.34,2.76.61,4.69.87,7.31L42,103.4c-1.13-5.13-3.75-7.21-8.45-7.21-7.28,0-11.16,6.82-11.16,14.18,0,9,4.8,15.25,11.42,15.25,4.44,0,6.79-2.66,9-7.51Z" style="fill:#182958"></path><path d="M81.16,96.53c-3.57.33-3.92.58-3.92,4.59v19.56c0,4.07.35,4.31,3.88,4.6v1.35H69.44v-1.35c3.7-.29,4.1-.53,4.1-4.6V111H58.68v9.68c0,4,.35,4.31,3.92,4.6v1.35H51.14v-1.35c3.49-.29,3.84-.53,3.84-4.6V101.12c0-4.06-.35-4.26-3.92-4.59V95.17H62.34v1.36c-3.31.33-3.66.58-3.66,4.59V109H73.54v-7.85c0-4-.35-4.26-3.75-4.59V95.17H81.16Z" style="fill:#182958"></path><path d="M104.16,126.63v-1.35c2.75-.39,3.14-.78,2.57-2.66s-1.44-4.51-2.39-7.46H95.06c-.7,2.18-1.35,4.21-1.92,6.24-1,3.06-.57,3.54,2.7,3.88v1.35H86.39v-1.35c2.74-.44,3.35-.73,4.88-5l9-25.41,1.36-.44c2.7,8.33,5.62,17.53,8.4,26,1.4,4.16,2,4.6,4.8,4.89v1.35Zm-4.27-25.89h-.08c-1.4,4.16-2.79,8.37-4.1,12.34h8Z" style="fill:#182958"></path><path d="M146,126.63v-1.35c3.53-.39,3.71-.63,3.66-5.76l-.13-19.75h-.17l-10.63,26.52h-.87l-9.76-25.85H128l-.65,13.8c-.18,4-.18,6.1-.13,8,.08,2.32,1.13,2.66,4,3v1.35H121.06v-1.35c2.53-.34,3.4-.87,3.71-2.91.22-1.69.48-3.82.83-8.86l.61-10.06c.39-6.3.17-6.49-3.79-6.93V95.17h7.14l9.93,24.2,10.07-24.2H157v1.35c-3.83.39-4.14.49-4,5.47l.44,17.53c.13,5.13.26,5.37,4.05,5.76v1.35Z" style="fill:#182958"></path><path d="M179.31,109.69c4.31.73,7.71,2.86,7.71,7.7a8.33,8.33,0,0,1-4.18,7.31,16.32,16.32,0,0,1-8.54,1.93h-9.63v-1.35c3.75-.29,4-.58,4-4.65V101.12c0-4-.17-4.31-3.66-4.59V95.17h11.2c3.26,0,5.18.58,6.53,1.64a6.87,6.87,0,0,1,2.44,5.52c0,4.6-3.44,6.49-5.88,7.22Zm-4.92-.58c4.79,0,6.79-2.13,6.79-6.2,0-3.29-1.65-6.19-5.79-6.19a5.11,5.11,0,0,0-2.48.48c-.39.29-.57.83-.57,2.42v9.49Zm-2,11.47c0,3.49.83,4.41,3.62,4.41,3.57,0,6.75-2.08,6.75-7.12s-3.05-7.16-8.37-7.16h-2Z" style="fill:#182958"></path><path d="M216.69,119c-.26,1.59-1.13,6.14-1.53,7.64h-21v-1.35c4-.34,4.32-.73,4.32-4.65V101.37c0-4.36-.35-4.51-3.75-4.84V95.17h19.43c0,1.21.22,4.5.35,7l-1.26.24a13.44,13.44,0,0,0-1.4-4.16c-.61-1-1.78-1.36-4.92-1.36h-3.31c-1.35,0-1.44.1-1.44,1.55v11h4.1c3.92,0,4.14-.39,4.7-3.63h1.26v9.29H211c-.56-3.48-.87-3.77-4.66-3.77h-4.14v9.15c0,2.27.26,3.29,1,3.92s2.35.63,4.53.63c3.31,0,4.53-.39,5.49-1.65a14.55,14.55,0,0,0,2.13-4.55Z" style="fill:#182958"></path><path d="M249.28,127c-.53,0-1,0-1.53,0-3.27-.19-5.1-1.26-7.06-4.4-1.52-2.37-3.09-5.38-4.4-7.75-.74-1.35-1.48-1.93-3.74-1.93h-1.4v7.69c0,4.12.39,4.41,3.88,4.7v1.35H223.57v-1.35c3.57-.29,4-.58,4-4.7V101.12c0-4.11-.35-4.26-3.75-4.6V95.17h10.8c3.18,0,5.32.43,7,1.65a7.47,7.47,0,0,1,2.88,6.34c0,4.16-2.31,6.73-5.53,8.27.74,1.6,2.57,4.84,3.87,7a42.61,42.61,0,0,0,3.53,5,6.16,6.16,0,0,0,3.14,2.27Zm-16-15.73c2.22,0,3.66-.39,4.75-1.36,1.7-1.45,2.4-3.38,2.4-6,0-5.23-3.09-7.16-6.41-7.16a3.93,3.93,0,0,0-2.35.48c-.3.24-.48.82-.48,2.13v11.91Z" style="fill:#182958"></path><rect width="265.18" height="2.84" style="fill:#182958"></rect><path d="M53.93,153.31l-2.13,3.24-.3-.11a.63.63,0,0,0,0-.27c0-1-1.56-1.83-3.24-1.83-3.1,0-5,1.45-5,5.11a4.62,4.62,0,0,0,4.84,4.85c1.81,0,3.43-1,3.43-1.86a1.8,1.8,0,0,0-.13-.56l.39-.11,2.72,2.94-.26.24a.83.83,0,0,0-.55-.27c-.74,0-1.75,1.89-5.92,1.89-4.91,0-7.76-3.29-7.76-7.12,0-5,4-7.38,8.15-7.38a7.88,7.88,0,0,1,3.33.68,7.74,7.74,0,0,0,1.49.67,1.56,1.56,0,0,0,.71-.24Z" style="fill:#d6995f"></path><path d="M74.13,152.07c5,0,7.76,3.21,7.76,7.25s-2.81,7.25-7.76,7.25-7.75-3.21-7.75-7.25,2.81-7.25,7.75-7.25m0,12.23c2.88,0,4.53-1.77,4.53-5s-1.65-5-4.53-5-4.52,1.77-4.52,5,1.65,5,4.52,5" style="fill:#d6995f"></path><path d="M94.82,166.4V166c.42,0,.65-.19.65-.54V153.15c0-.35-.2-.51-.65-.54v-.37h5.72v.37c-.32.11-.48.22-.48.41,0,.45,3.2,6.54,3.81,8,1.68-3.51,3.91-7.6,3.91-8s-.16-.35-.51-.43v-.37h5.65v.37c-.48,0-.71.19-.71.54v12.34c0,.35.23.51.78.54v.37h-4.53V166c.59,0,.78-.19.78-.54v-10h-.06c-1.46,3.69-3.53,7.27-5.21,10.88h-.48c-1.62-3.52-3.66-7.08-5-10.77h-.07v9.86c0,.35.2.51.78.54v.37Z" style="fill:#d6995f"></path><path d="M126.4,166.4V166c.42,0,.65-.19.65-.54V153.15c0-.35-.19-.51-.65-.54v-.37h5.73v.37c-.33.11-.49.22-.49.41,0,.45,3.2,6.54,3.82,8,1.68-3.51,3.91-7.6,3.91-8s-.17-.35-.52-.43v-.37h5.66v.37c-.49,0-.71.19-.71.54v12.34c0,.35.22.51.77.54v.37h-4.52V166c.58,0,.77-.19.77-.54v-10h-.06c-1.46,3.69-3.53,7.27-5.21,10.88h-.48c-1.62-3.52-3.66-7.08-5-10.77H130v9.86c0,.35.2.51.78.54v.37Z" style="fill:#d6995f"></path><path d="M162.06,164.14h7.44c.74,0,1-.08,1.09-.48h.46v3.23h-.46c-.09-.4-.35-.48-1.09-.48H157.79V166c.88-.08,1-.25,1-.7v-12c0-.45-.16-.62-1.1-.7v-.38H169c.74,0,1-.08,1.1-.48h.45v3.18h-.45c-.1-.35-.36-.43-1.1-.43h-7V158h4.14c.74,0,1-.08,1.1-.48h.45v3.17h-.45a.43.43,0,0,0-.29-.35,3.2,3.2,0,0,0-.81-.08h-4.14Z" style="fill:#d6995f"></path><path d="M184.46,166.4V166c.55-.08.71-.25.71-.7v-12c0-.46-.16-.62-.77-.7v-.37h8.08c3.55,0,5.69,1.5,5.69,3.93,0,2.05-1.2,3.55-3.66,4l2.53,4.1c.71,1.21.87,1.67,1.52,1.75v.37h-4.79V166c.36,0,.65-.11.65-.35s0-.27-.39-.84l-2.68-4.31h-2.94v4.8c0,.45.16.62.77.7v.37Zm3.95-8.13h3.71c2,0,2.81-.7,2.81-1.89s-.83-1.88-2.81-1.88h-3.71Z" style="fill:#d6995f"></path><path d="M225.39,153.31l-2.14,3.24-.29-.11a.83.83,0,0,0,0-.27c0-1-1.55-1.83-3.23-1.83-3.1,0-5,1.45-5,5.11a4.63,4.63,0,0,0,4.85,4.85c1.81,0,3.43-1,3.43-1.86a2.14,2.14,0,0,0-.13-.56l.39-.11,2.71,2.94-.26.24a.8.8,0,0,0-.55-.27c-.74,0-1.74,1.89-5.91,1.89-4.92,0-7.76-3.29-7.76-7.12,0-5,4-7.38,8.15-7.38a7.92,7.92,0,0,1,3.33.68,7.76,7.76,0,0,0,1.48.67,1.52,1.52,0,0,0,.71-.24Z" style="fill:#d6995f"></path><path d="M242.39,164.14h7.44c.74,0,1-.08,1.09-.48h.46v3.23h-.46c-.09-.4-.35-.48-1.09-.48H238.12V166c.88-.08,1-.25,1-.7v-12c0-.45-.16-.62-1.1-.7v-.38h11.31c.74,0,1-.08,1.1-.48h.45v3.18h-.45c-.1-.35-.36-.43-1.1-.43h-7V158h4.14c.74,0,1-.08,1.1-.48h.45v3.17h-.45a.43.43,0,0,0-.29-.35,3.2,3.2,0,0,0-.81-.08h-4.14Z" style="fill:#d6995f"></path><path d="M18.85,164.6c-1.14,0-1.7-1.07-1.7-3.22a10.12,10.12,0,0,1,1.33-5c.88-1.6,1.8-2.4,2.75-2.4,1.15,0,1.73,1.07,1.73,3.22a10.22,10.22,0,0,1-1.33,5c-.89,1.6-1.81,2.4-2.78,2.4m.91-1.21c.58,0,1.06-.46,1.46-1.38a9.07,9.07,0,0,0,.58-3.45c0-2.24-.49-3.36-1.46-3.36-.58,0-1.06.46-1.45,1.39A8.83,8.83,0,0,0,18.3,160c0,2.25.49,3.37,1.46,3.37" style="fill:#d6995f"></path><path d="M27,155.52l-.61,8.73a24.42,24.42,0,0,1-.64,4.52,8.08,8.08,0,0,1-1.37,2.79,4,4,0,0,1-3.14,1.82,2.13,2.13,0,0,1-.89-.27l1-1.3a2.77,2.77,0,0,0,1.16.3c1.49,0,2.34-1.61,2.58-4.83l.19-2.67.63-9.09H24.53l.86-1.25H26l0-.63a14,14,0,0,1,1.61-6.21,3.94,3.94,0,0,1,3.45-2.23,4.34,4.34,0,0,1,.9.1l-1.06,1.48a2.33,2.33,0,0,0-1.1-.31A1.91,1.91,0,0,0,28,147.75a18.12,18.12,0,0,0-.8,4.93l-.11,1.59h3.06l-.9,1.25Z" style="fill:#d6995f"></path><rect y="174.5" width="265.18" height="2.84" style="fill:#182958"></rect></g></g></svg> 