<?xml version="1.0" encoding="UTF-8"?> <svg xmlns="http://www.w3.org/2000/svg" viewBox="0 0 286.41 129.82"><title>logo-pc</title><g id="Layer_2" data-name="Layer 2"><g id="Layer_1-2" data-name="Layer 1"><path d="M120.11,3.53s7.61,1.5,13.18-.25c5.8-1.82,12.25-3.87,15.41-2.42.84.39,2.42.79,2.16,1.94-.06.26-1.15,3.53-1.15,3.53s-1.06.37-1.27,0a4.34,4.34,0,0,0-1.94-1.56s-5.86-1.17-8.72.32c-2.49,1.3-13.69,1.24-17.67-1.56" style="fill:#19abb5"></path><path d="M154.55,0s-.47,29.86-9,72.89A3,3,0,0,1,143,75.38c-3.69.28-41,2.49-55.55,1.22,0,0,57.11-19.43,65.51-74.86Z" style="fill:#19abb5"></path><path d="M183.2,6a18.46,18.46,0,1,1-18.46,18.46A18.48,18.48,0,0,1,183.2,6m0-2.67a21.13,21.13,0,1,0,21.13,21.13A21.13,21.13,0,0,0,183.2,3.28" style="fill:#19abb5"></path><path d="M1,90A20.93,20.93,0,0,1,5,89.63,6.15,6.15,0,0,1,9.34,91a4.84,4.84,0,0,1,1.43,3.59,5.24,5.24,0,0,1-1.26,3.68A6.06,6.06,0,0,1,4.89,100a7,7,0,0,1-1.3-.09V106H1Zm2.64,7.56a4.74,4.74,0,0,0,1.3.12c2,0,3.21-1.08,3.21-3S7,91.9,5.13,91.9A6.84,6.84,0,0,0,3.59,92Z" style="fill:#0067a6"></path><path d="M26.23,97.7c0,5.44-3,8.55-7,8.55s-6.72-3.49-6.72-8.26c0-5,2.82-8.5,6.94-8.5S26.23,93.08,26.23,97.7Zm-10.9.24c0,3.3,1.5,5.92,4,5.92s4-2.64,4-6c0-3.06-1.37-5.95-4-5.95S15.33,94.6,15.33,97.94Z" style="fill:#0067a6"></path><path d="M28.71,90a23.06,23.06,0,0,1,4-.34c2.11,0,3.54.39,4.51,1.3a4.6,4.6,0,0,1-1.38,7.33v.07c1,.43,1.66,1.56,2,3.13A36.25,36.25,0,0,0,39.05,106H36.3a23.91,23.91,0,0,1-1-3.82c-.41-2.12-1.1-2.8-2.62-2.85H31.36V106H28.71Zm2.65,7.18h1.58a2.63,2.63,0,0,0,2.93-2.68c0-1.78-1.13-2.6-2.87-2.6a6.9,6.9,0,0,0-1.64.15Z" style="fill:#0067a6"></path><path d="M44.16,92.24H40V89.76H51v2.48H46.82V106H44.16Z" style="fill:#0067a6"></path><path d="M68.09,105.5a8.4,8.4,0,0,1-3.77.72c-4.64,0-7.45-3.22-7.45-8.16,0-5.34,3.33-8.57,7.8-8.57a7.68,7.68,0,0,1,3.55.72l-.58,2.36A6.6,6.6,0,0,0,64.78,92c-3,0-5.12,2.07-5.12,6,0,3.56,1.89,5.85,5.1,5.85a6.81,6.81,0,0,0,2.9-.6Z" style="fill:#0067a6"></path><path d="M83,97.7c0,5.44-3,8.55-7,8.55s-6.72-3.49-6.72-8.26c0-5,2.81-8.5,6.93-8.5C80.48,89.49,83,93.08,83,97.7Zm-10.91.24c0,3.3,1.5,5.92,4.06,5.92s4-2.64,4-6c0-3.06-1.37-5.95-4-5.95S72.09,94.6,72.09,97.94Z" style="fill:#0067a6"></path><path d="M85.48,89.76h2.66V103.5h6V106H85.48Z" style="fill:#0067a6"></path><path d="M96.35,90a20.3,20.3,0,0,1,3.88-.34c2,0,3.19.27,4.18,1a3.51,3.51,0,0,1,1.52,3,3.75,3.75,0,0,1-2.43,3.52v0a4,4,0,0,1,3,4,4.42,4.42,0,0,1-1.41,3.35c-1,1-2.75,1.51-5.42,1.51a22.59,22.59,0,0,1-3.27-.22ZM99,96.38h1.37c1.84,0,2.88-1,2.88-2.34,0-1.52-1-2.21-2.73-2.21A6.15,6.15,0,0,0,99,92Zm0,7.46a10.39,10.39,0,0,0,1.41.07c1.71,0,3.23-.72,3.23-2.72s-1.47-2.65-3.32-2.65H99Z" style="fill:#0067a6"></path><path d="M122,97.7c0,5.44-3,8.55-7,8.55s-6.72-3.49-6.72-8.26c0-5,2.82-8.5,6.94-8.5S122,93.08,122,97.7Zm-10.9.24c0,3.3,1.49,5.92,4.05,5.92s4-2.64,4-6c0-3.06-1.36-5.95-4-5.95S111.1,94.6,111.1,97.94Z" style="fill:#0067a6"></path><path d="M124.48,90a23.06,23.06,0,0,1,4-.34c2.1,0,3.54.39,4.51,1.3a4.6,4.6,0,0,1-1.39,7.33v.07c1,.43,1.67,1.56,2,3.13a36.25,36.25,0,0,0,1.15,4.52h-2.75a23.91,23.91,0,0,1-1-3.82c-.41-2.12-1.1-2.8-2.62-2.85h-1.35V106h-2.64Zm2.64,7.18h1.59a2.62,2.62,0,0,0,2.92-2.68c0-1.78-1.12-2.6-2.86-2.6a7.08,7.08,0,0,0-1.65.15Z" style="fill:#0067a6"></path><path d="M137,106V89.76h3l3.77,6.95a47.61,47.61,0,0,1,2.5,5.45h0c-.17-2.17-.24-4.27-.24-6.75V89.76h2.47V106h-2.75L142,98.86a58.09,58.09,0,0,1-2.63-5.61l-.06,0c.11,2.09.13,4.24.13,6.91V106Z" style="fill:#0067a6"></path><path d="M160,98.78h-5.51v4.77h6.16V106h-8.82V89.76h8.49v2.43h-5.83v4.19H160Z" style="fill:#0067a6"></path><path d="M172.54,98.54v2H167v-2Z" style="fill:#0067a6"></path><path d="M181.24,106l-3.57-16.22h2.84l1.38,7.36c.37,2,.72,4,1,5.66h0c.24-1.71.65-3.63,1.07-5.68l1.58-7.34h2.79l1.45,7.46c.37,1.93.68,3.73.89,5.49h.05c.26-1.78.6-3.64,1-5.61l1.52-7.34h2.71L192,106h-2.86l-1.52-7.63a49.28,49.28,0,0,1-.8-5.15h-.05c-.26,1.73-.54,3.3-1,5.15L184.13,106Z" style="fill:#0067a6"></path><path d="M199.68,101.38l-1.26,4.6h-2.75l4.68-16.22h3.4L208.5,106h-2.86l-1.33-4.6Zm4.18-2.23-1.15-4c-.28-1-.52-2.1-.74-3h0c-.22.94-.43,2.07-.69,3l-1.13,4Z" style="fill:#0067a6"></path><path d="M213.41,89.76V106h-2.67V89.76Z" style="fill:#0067a6"></path><path d="M216.67,106V89.76h3l3.77,6.95a45.85,45.85,0,0,1,2.49,5.45h0c-.17-2.17-.23-4.27-.23-6.75V89.76h2.47V106h-2.76l-3.81-7.12a58,58,0,0,1-2.62-5.61l-.07,0c.11,2.09.13,4.24.13,6.91V106Z" style="fill:#0067a6"></path><path d="M231.51,89.76h8.43v2.43h-5.76v4.48h5.37V99.1h-5.37V106h-2.67Z" style="fill:#0067a6"></path><path d="M242.75,89.76h2.67V103.5h6V106h-8.67Z" style="fill:#0067a6"></path><path d="M261.81,98.78h-5.5v4.77h6.15V106h-8.82V89.76h8.5v2.43h-5.83v4.19h5.5Z" style="fill:#0067a6"></path><path d="M273.16,98.78h-5.5v4.77h6.15V106H265V89.76h8.5v2.43h-5.83v4.19h5.5Z" style="fill:#0067a6"></path><path d="M279.35,92.24h-4.16V89.76h11v2.48H282V106h-2.67Z" style="fill:#0067a6"></path><path d="M13.36,129a10.64,10.64,0,0,1-4.4.77c-5.91,0-9-3.87-9-9,0-6.15,4.16-9.57,9.34-9.57a9.75,9.75,0,0,1,4.22.8l-.79,3.24a7.93,7.93,0,0,0-3.25-.67c-3.07,0-5.46,2-5.46,6,0,3.61,2,5.88,5.49,5.88a9,9,0,0,0,3.22-.59Z" style="fill:#0067a6"></path><path d="M19.73,111.5v6.93h6.38V111.5H30v18H26.11V122H19.73v7.54H15.85v-18Z" style="fill:#0067a6"></path><path d="M37.26,124.9,36,129.53H32l5.23-18h5.08l5.31,18H43.48l-1.32-4.63Zm4.34-3.05L40.54,118c-.31-1.07-.61-2.41-.87-3.48h-.05c-.25,1.07-.51,2.44-.78,3.48l-1,3.82Z" style="fill:#0067a6"></path><path d="M64.36,122.63c-.08-2.17-.16-4.79-.16-7.41h-.07c-.53,2.3-1.24,4.87-1.9,7l-2.09,7h-3l-1.83-7c-.56-2.11-1.14-4.68-1.55-7h-.05c-.1,2.43-.17,5.22-.3,7.46l-.31,6.85H49.5l1.1-18h5.15l1.68,6c.53,2.09,1.06,4.33,1.44,6.44H59c.48-2.08,1.07-4.46,1.62-6.47l1.83-6h5.05l.94,18H64.61Z" style="fill:#0067a6"></path><path d="M71.32,111.74a29.94,29.94,0,0,1,5-.37c2.36,0,3.8.24,5,1a4,4,0,0,1,2.06,3.53,4.06,4.06,0,0,1-2.82,3.85v0a4.46,4.46,0,0,1,3.4,4.44,4.88,4.88,0,0,1-1.78,3.82c-1.24,1-3.32,1.63-6.73,1.63a29.38,29.38,0,0,1-4.19-.26Zm3.84,6.9h1.27c2,0,3.12-.88,3.12-2.22s-1-2.08-2.74-2.08a9.23,9.23,0,0,0-1.65.11Zm0,8a12.43,12.43,0,0,0,1.5,0c1.75,0,3.3-.69,3.3-2.59s-1.55-2.54-3.48-2.54H75.16Z" style="fill:#0067a6"></path><path d="M96.8,121.9H90.5v4.28h7v3.35H86.62v-18H97.18v3.35H90.5v3.74h6.3Z" style="fill:#0067a6"></path><path d="M100.1,111.74a32.87,32.87,0,0,1,5.16-.37c2.54,0,4.31.4,5.53,1.42a4.66,4.66,0,0,1,1.58,3.77,4.73,4.73,0,0,1-3,4.43v.09c1.2.5,1.86,1.71,2.29,3.37.53,2,1.07,4.38,1.39,5.08h-4a23.76,23.76,0,0,1-1.19-4.2c-.46-2.25-1.19-2.86-2.77-2.89h-1.17v7.09H100.1Zm3.83,7.76h1.53c1.93,0,3.07-1,3.07-2.59s-1.07-2.49-2.84-2.52a8.58,8.58,0,0,0-1.76.14Z" style="fill:#0067a6"></path><path d="M135.83,120.33c0,5.91-3.4,9.49-8.4,9.49s-8.05-4-8.05-9.17c0-5.4,3.28-9.44,8.33-9.44C133,111.21,135.83,115.36,135.83,120.33Zm-12.36.24c0,3.53,1.57,6,4.16,6s4.12-2.62,4.12-6.12c0-3.23-1.48-6-4.14-6S123.47,117.07,123.47,120.57Z" style="fill:#0067a6"></path><path d="M138.33,111.5h10.46v3.35h-6.57V119h6.14v3.32h-6.14v7.25h-3.89Z" style="fill:#0067a6"></path><path d="M169.29,129a10.62,10.62,0,0,1-4.39.77c-5.92,0-9-3.87-9-9,0-6.15,4.17-9.57,9.35-9.57a9.7,9.7,0,0,1,4.21.8l-.79,3.24a7.93,7.93,0,0,0-3.25-.67c-3.07,0-5.45,2-5.45,6,0,3.61,2,5.88,5.48,5.88a9,9,0,0,0,3.22-.59Z" style="fill:#0067a6"></path><path d="M186.66,120.33c0,5.91-3.4,9.49-8.4,9.49s-8-4-8-9.17c0-5.4,3.27-9.44,8.32-9.44C183.79,111.21,186.66,115.36,186.66,120.33Zm-12.36.24c0,3.53,1.57,6,4.16,6s4.11-2.62,4.11-6.12c0-3.23-1.47-6-4.14-6S174.3,117.07,174.3,120.57Z" style="fill:#0067a6"></path><path d="M203.63,122.63c-.08-2.17-.15-4.79-.15-7.41h-.08c-.53,2.3-1.24,4.87-1.9,7l-2.09,7h-3l-1.83-7c-.55-2.11-1.14-4.68-1.55-7h0c-.1,2.43-.17,5.22-.3,7.46l-.3,6.85h-3.59l1.1-18H195l1.68,6c.53,2.09,1.06,4.33,1.44,6.44h.08c.48-2.08,1.07-4.46,1.63-6.47l1.82-6h5.06l.93,18h-3.78Z" style="fill:#0067a6"></path><path d="M225.06,122.63c-.07-2.17-.15-4.79-.15-7.41h-.07c-.54,2.3-1.25,4.87-1.91,7l-2.08,7h-3l-1.83-7c-.56-2.11-1.14-4.68-1.55-7h0c-.1,2.43-.18,5.22-.3,7.46l-.31,6.85h-3.58l1.09-18h5.16l1.67,6c.54,2.09,1.07,4.33,1.45,6.44h.08c.48-2.08,1.06-4.46,1.62-6.47l1.83-6h5l.94,18h-3.78Z" style="fill:#0067a6"></path><path d="M242.21,121.9h-6.29v4.28h7v3.35H232v-18h10.56v3.35h-6.67v3.74h6.29Z" style="fill:#0067a6"></path><path d="M245.52,111.74a32.73,32.73,0,0,1,5.15-.37c2.54,0,4.32.4,5.54,1.42a4.69,4.69,0,0,1,1.57,3.77,4.74,4.74,0,0,1-3,4.43v.09c1.19.5,1.85,1.71,2.28,3.37.54,2,1.07,4.38,1.4,5.08h-4a22.87,22.87,0,0,1-1.19-4.2c-.46-2.25-1.2-2.86-2.77-2.89h-1.17v7.09h-3.83Zm3.83,7.76h1.53c1.92,0,3.07-1,3.07-2.59s-1.07-2.49-2.85-2.52a8.45,8.45,0,0,0-1.75.14Z" style="fill:#0067a6"></path><path d="M273,129a10.62,10.62,0,0,1-4.39.77c-5.92,0-9-3.87-9-9,0-6.15,4.17-9.57,9.35-9.57a9.7,9.7,0,0,1,4.21.8l-.79,3.24a7.93,7.93,0,0,0-3.25-.67c-3.07,0-5.45,2-5.45,6,0,3.61,2,5.88,5.48,5.88a9,9,0,0,0,3.22-.59Z" style="fill:#0067a6"></path><path d="M285.67,121.9h-6.29v4.28h7v3.35H275.49v-18h10.56v3.35h-6.67v3.74h6.29Z" style="fill:#0067a6"></path><path d="M145.56,7.73S195.37,21.37,192.91,79a1.39,1.39,0,0,1-2.07,0c-1.15-1-16-15.91-57.8-6.87,0,0,49.4-20,12.52-64.43" style="fill:#0067a6"></path><path d="M118.17,78.75s16.71,4.87,39.06-1.94c0,0,17.19-4.33,29.6,2.1,0,0,2.67,1.56,0,1.17s-13.27-3.43-26.07,1.15-30,8.59-43.26-1.24c0,0-1.72-1.43.67-1.24" style="fill:#0067a6"></path></g></g></svg> 